<?xml version="1.0" encoding="utf-8"?>
<!-- Generator: Adobe Illustrator 24.0.2, SVG Export Plug-In . SVG Version: 6.00 Build 0)  -->
<svg version="1.1" id="Calque_1" xmlns="http://www.w3.org/2000/svg" xmlns:xlink="http://www.w3.org/1999/xlink" x="0px" y="0px"
	 viewBox="0 0 595.28 841.89" style="enable-background:new 0 0 595.28 841.89;" xml:space="preserve">
<style type="text/css">
	.st0{fill:#434697;}
</style>
<polygon class="st0" points="450.49,263.93 450.49,481.41 278.41,572.2 134.83,466.63 276.3,544.75 420.93,464.51 423.04,264.98 
	399.81,262.87 436.76,212.2 471.6,261.82 "/>
<polygon class="st0" points="402.98,294.54 402.54,359.52 402.47,370.46 401.93,449.73 378,464.23 355.27,478.01 332.25,491.96 
	330,367.34 329.85,359.52 329.08,316.71 "/>
<polygon class="st0" points="313.25,320.94 313.25,501.46 291.25,516.13 286.91,519.02 280.25,523.46 278.41,524.69 276.21,523.46 
	268.56,519.19 265.12,517.27 242.51,504.63 242.51,346.27 "/>
<polygon class="st0" points="224.57,352.61 224.25,395.91 224.08,418.36 224.05,421.91 223.83,451.16 223.51,494.07 196.65,477.88 
	173.86,464.14 155.58,453.12 151.72,450.79 151.46,432.19 151.05,402.22 150.7,376.96 150.67,374.78 151.58,374.51 162.1,371.35 
	167.1,369.85 170.71,368.77 "/>
<g>
	<path class="st0" d="M268.17,679.54l-4.06,16.46h-18l23.05-73.1h27.22l-7.9,73.1h-17.12l2.2-16.46H268.17z M275.97,665.71
		c0.88-5.6,3.18-24.26,3.73-28.21h-0.77c-0.77,3.18-5.27,21.07-7.13,28.21H275.97z"/>
	<path class="st0" d="M331.61,696.01h-12.18c0-1.21,0.22-3.4,0.44-4.94c-3.51,5.16-8.45,6.04-12.51,6.04
		c-10.98,0-13.72-7.46-11.2-19.32l7.13-34.03c2.74-13.17,7.35-21.95,22.39-21.95c18.44,0,19.43,11.63,17.34,20.96l-0.77,3.51h-17.34
		l1.43-6.48c0.77-3.73,0.11-4.83-1.87-4.83c-1.43,0-2.41,0.55-3.4,5.05l-8.45,39.51c-0.88,4.06,0.66,4.39,1.76,4.39
		c1.65,0,2.85-1.1,3.73-5.27l2.3-11.2h-2.74l3.18-13.94h19.87L331.61,696.01z"/>
	<path class="st0" d="M376.94,664.83h-14.27l-3.51,17.34h16.9l-4.39,13.83h-32.49l18.13-94.95H522.9l-2.96,13.83H371.47l-5.83,36.01
		h14.27L376.94,664.83z"/>
	<path class="st0" d="M378.04,696.01l15.48-73.1h18.88c-1.1,20.2-2.96,47.53-3.18,50.6h0.77c1.21-11.52,5.16-41.16,6.59-47.96
		l0.55-2.63h16.02l-15.48,73.1h-19.43c1.21-19.21,3.07-47.64,3.29-50.05h-0.88c-1.21,8.12-5.27,39.84-7.02,48.3l-0.33,1.76H378.04z"
		/>
	<path class="st0" d="M468.81,668.9l-1.43,6.7c-2.41,11.31-5.49,21.51-22.28,21.51c-11.96,0-20.42-3.95-16.57-21.95l7.13-33.81
		c3.29-15.7,10.32-19.54,21.84-19.54c18.55,0,18.77,12.18,16.9,20.53l-1.32,6.48h-16.9l1.98-9.33c0.66-2.96,0.33-4.61-1.76-4.61
		c-1.76,0-2.52,1.1-3.29,4.61l-8.34,39.51c-0.77,3.73-0.44,4.94,1.32,4.94c1.98,0,2.85-1.32,3.73-5.27l2.09-9.77H468.81z"/>
	<path class="st0" d="M476.38,696.01l4.06-19.54c0.33-1.54,0.66-4.28,0.66-5.93l-0.99-47.64h17.45c-1.32,8.78-2.41,18.99-4.17,29.85
		h1.1c2.3-8.12,5.82-19.76,8.56-29.85h17.67l-21.84,49.5c-0.66,1.54-0.88,1.98-1.21,3.51l-4.39,20.09H476.38z"/>
</g>
<g>
	<path class="st0" d="M90.27,695.58l10.3-72.19h17.02c-1.84,9-8.35,39.78-9.86,45.96h0.98c3.14-11.17,8.78-31.87,12.57-45.96h12.25
		c-1.84,10.41-5.09,33.6-7.15,45.42h1.19c2.38-11.38,8.56-40.98,9.43-45.42h16.48l-21.57,72.19h-18.1
		c0.87-6.5,1.41-13.33,3.58-26.88h-0.98c-3.36,12.68-5.2,17.89-7.59,26.88H90.27z"/>
	<path class="st0" d="M162.57,637.04h-8.89l2.93-13.66h34.69l-2.93,13.66h-9l-12.36,58.54h-16.8L162.57,637.04z"/>
	<path class="st0" d="M190.32,695.58l4.01-19.3c0.33-1.52,0.65-4.23,0.65-5.85L194,623.38h17.23c-1.3,8.67-2.38,18.75-4.12,29.48
		h1.08c2.28-8.02,5.74-19.51,8.45-29.48h17.45l-21.57,48.89c-0.65,1.52-0.87,1.95-1.19,3.47l-4.34,19.84H190.32z"/>
</g>
</svg>
